<svg viewBox="0 0 3001 838" fill="none"
    xmlns="http://www.w3.org/2000/svg">
    <path d="M459.322 111.679C348.248 48.3087 229.078 10.0702 113.628 0.75V650.504C229.067 659.568 348.025 696.76 459.322 758.505V111.679Z" fill="#354733"/>
    <path d="M825.394 0.75C709.944 10.0813 590.763 48.3087 479.7 111.679V758.494C590.975 696.748 709.966 659.557 825.394 650.493V0.75Z" fill="#354733"/>
    <path d="M455.536 792.111C464.601 795.206 474.144 795.34 483.208 792.244C613.011 736.089 748.951 710.812 881.828 716.636V73.3405C869.868 72.806 857.831 72.6836 845.749 72.7281V669.511L836.262 670.135C717.427 677.896 594.271 716.647 479.7 782.022C473.086 784.282 465.926 784.282 459.322 782.022C344.741 716.647 221.596 677.896 102.76 670.135L93.2507 669.511V72.7281C81.1801 72.6836 69.1317 72.7949 57.1836 73.3405V716.636C190.05 710.801 325.699 735.955 455.536 792.111Z" fill="#354733"/>
    <path d="M938.25 145.553C926.335 143.894 914.231 143.014 902.205 141.823V738.116L891.426 737.492C755.632 729.709 612.377 757.28 479.7 816.163L469.5 820.406L459.311 816.163C326.612 757.28 183.368 729.698 47.5738 737.492L36.806 738.116V141.823C24.7688 143.025 12.6647 143.905 0.75 145.553V799.271C7.36435 802.689 12.3752 807.6 12.3752 807.6C156.588 788.113 306.268 790.496 448.655 837.12C455.202 836.474 462.151 836.062 469.511 836.062C476.872 836.062 483.82 836.474 490.356 837.12C632.721 790.485 782.423 788.113 926.625 807.6C926.625 807.6 931.903 802.456 938.25 799.271V145.553Z" fill="#354733"/>
    <path d="M1227.1 531.543H1208.96L1125.75 315.596H1160.01L1218.18 474.533L1276.05 315.596H1310.31L1227.1 531.543ZM1328.45 471.366V389.306H1358.11V468.486C1358.11 497.279 1367.04 509.948 1391.51 509.948C1419.15 509.948 1430.38 490.657 1430.38 465.607V389.306H1460.04V531.543H1430.38V508.509C1426.35 521.178 1408.5 532.695 1391.51 533.847C1352.93 536.726 1328.45 518.01 1328.45 471.366ZM1634.52 460.712V471.366H1522.52C1522.52 497.567 1547.57 510.236 1565.99 510.236C1579.53 510.236 1594.5 503.038 1602.56 491.521L1623.01 509.948C1613.5 522.905 1597.96 534.422 1565.99 534.422C1519.93 534.422 1491.71 503.038 1491.71 460.712C1491.71 418.387 1519.06 386.714 1563.12 386.714C1607.17 386.714 1627.32 411.188 1633.37 446.892C1634.23 451.499 1634.52 456.105 1634.52 460.712ZM1523.09 446.892H1603.43C1603.43 423.857 1585 411.188 1563.12 411.188C1541.23 411.188 1523.09 425.873 1523.09 446.892ZM1796.34 410.325C1813.33 422.13 1824.56 442.285 1824.56 465.319C1824.56 501.886 1795.76 531.543 1760.35 531.543H1674.83V315.596H1760.35C1789.43 315.596 1812.75 340.358 1812.75 370.302C1812.75 385.851 1806.42 400.247 1796.34 410.325ZM1706.79 342.085V399.095H1760.35H1761.21C1772.15 398.232 1780.79 385.275 1780.79 370.302C1780.79 355.042 1771.58 342.085 1760.35 342.085H1706.79ZM1760.35 505.054C1778.2 505.054 1792.6 487.202 1792.6 465.319C1792.6 444.012 1778.78 426.449 1761.79 425.585H1760.35H1706.79V505.054H1760.35ZM1933.11 411.188C1908.63 411.188 1888.76 431.631 1888.76 460.712C1888.76 489.505 1908.63 510.236 1933.11 510.236C1957.58 510.236 1977.45 489.505 1977.45 460.712C1977.45 431.631 1957.58 411.188 1933.11 411.188ZM1933.11 386.714C1973.99 386.714 2007.1 418.387 2007.1 460.712C2007.1 503.038 1973.99 534.422 1933.11 534.422C1892.22 534.422 1859.11 503.038 1859.11 460.712C1859.11 418.387 1892.22 386.714 1933.11 386.714ZM2107.02 411.188C2082.54 411.188 2062.67 431.631 2062.67 460.712C2062.67 489.505 2082.54 510.236 2107.02 510.236C2131.49 510.236 2151.36 489.505 2151.36 460.712C2151.36 431.631 2131.49 411.188 2107.02 411.188ZM2107.02 386.714C2147.9 386.714 2181.01 418.387 2181.01 460.712C2181.01 503.038 2147.9 534.422 2107.02 534.422C2066.13 534.422 2033.02 503.038 2033.02 460.712C2033.02 418.387 2066.13 386.714 2107.02 386.714ZM2314.9 531.543L2261.06 462.728L2245.51 475.973V531.543H2215.56V315.596H2245.51V439.118L2302.81 389.306H2348.88L2282.65 444.588L2353.2 531.543H2314.9ZM2473.26 476.261C2473.84 477.988 2478.73 492.097 2472.69 506.493C2465.2 523.481 2445.33 534.422 2420.57 534.422H2420.28C2400.42 534.422 2382.28 526.072 2368.74 512.828L2388.03 493.536C2396.1 503.902 2407.61 509.085 2420.28 509.085C2434.39 509.085 2446.2 503.902 2449.36 496.416C2451.38 491.233 2449.65 485.762 2449.65 485.186C2446.2 476.549 2433.53 474.821 2419.13 471.654C2399.84 467.335 2380.55 462.44 2373.06 442.285C2369.32 431.919 2370.47 419.826 2375.65 409.749C2387.46 387.578 2416.83 386.714 2420.28 386.714C2440.15 386.714 2458.87 394.201 2472.11 407.733L2452.82 427.025C2444.76 416.659 2432.95 412.052 2420.28 412.052C2420 412.052 2403.01 412.34 2398.11 421.842C2396.38 424.721 2395.52 429.616 2396.96 433.647C2399.84 441.709 2412.8 444.3 2426.62 447.468C2445.33 451.787 2465.78 456.105 2473.26 476.261ZM2643.14 449.483V531.543H2613.48V452.362C2613.48 423.569 2604.56 410.9 2580.08 410.9C2552.44 410.9 2541.21 430.192 2541.21 455.242V531.543H2511.56V315.596H2541.21V412.34C2545.24 399.671 2563.1 388.154 2580.08 387.002C2618.67 384.123 2643.14 402.838 2643.14 449.483ZM2814.75 460.712V471.366H2702.74C2702.74 497.567 2727.79 510.236 2746.22 510.236C2759.75 510.236 2774.72 503.038 2782.79 491.521L2803.23 509.948C2793.73 522.905 2778.18 534.422 2746.22 534.422C2700.15 534.422 2671.93 503.038 2671.93 460.712C2671.93 418.387 2699.29 386.714 2743.34 386.714C2787.39 386.714 2807.55 411.188 2813.6 446.892C2814.46 451.499 2814.75 456.105 2814.75 460.712ZM2703.32 446.892H2783.65C2783.65 423.857 2765.22 411.188 2743.34 411.188C2721.46 411.188 2703.32 425.873 2703.32 446.892ZM2876.36 310.125V531.543H2846.42V310.125H2876.36ZM3000.75 340.07C2996.43 338.054 2989.23 335.463 2980.02 339.206C2965.91 345.54 2963.61 351.299 2963.61 374.909V389.306H3000.75V413.492H2963.61V531.543H2933.95V413.492H2916.67V389.306H2933.95V374.909C2933.95 352.451 2933.95 347.268 2942.59 333.159C2951.8 317.899 2966.77 312.716 2983.76 312.716C2991.54 312.716 2997.01 314.732 3000.75 317.035V340.07Z" fill="#354733"/>
</svg>
