<svg width="738" height="764" viewBox="0 0 738 764" fill="none" xmlns="http://www.w3.org/2000/svg">
<path d="M734.975 641.025L579.7 61.4501C570.1 26.5001 538.6 1.2501 501.225 1.2501C493.75 1.2501 486.5 2.2501 479.625 4.1501L480.2 4.0251L407.8 23.4251C402.05 25.0501 397.075 27.0501 392.35 29.5001L392.8 29.3001C377.95 11.8501 356 0.800098 331.475 0.725098H256.5C237.5 0.800098 220.075 7.4751 206.35 18.5501L206.5 18.4251C192.925 7.4751 175.5 0.800098 156.525 0.725098H81.5C36.65 0.775098 0.3 37.1251 0.25 81.9751V681.975C0.3 726.825 36.65 763.175 81.5 763.225H156.5C175.5 763.15 192.925 756.5 206.65 745.425L206.5 745.55C220.075 756.5 237.5 763.15 256.475 763.25H331.45C376.3 763.2 412.65 726.85 412.7 682V355.675L505.625 702.5C515.175 737.45 546.65 762.7 584.025 762.7C591.525 762.7 598.775 761.675 605.675 759.775L605.1 759.9L677.55 740.525C712.5 730.875 737.725 699.375 737.725 662C737.725 654.55 736.725 647.325 734.85 640.45L734.975 641.025ZM444.65 233.525L553.3 204.4L640.65 530.45L532.025 559.55L444.65 233.525ZM423.975 83.8001L496.35 64.4251C497.75 64.0501 499.375 63.8501 501.05 63.8501C509.7 63.8501 517.025 69.6251 519.325 77.5251L519.35 77.6501L537.15 144.05L428.5 173.175L412.7 114.25V93.0501C415.05 88.5751 419.05 85.2501 423.85 83.8001H423.975ZM256.5 63.2501H331.45C341.75 63.4001 350.05 71.7001 350.2 81.9751V150.725L237.75 150.75V82.0001C237.9 71.7001 246.2 63.4001 256.475 63.2501H256.5ZM175.25 550.75H62.75V213.25L175.25 213.225V550.75ZM237.75 213.25L350.2 213.225V550.75H237.75V213.25ZM81.5 63.2501H156.5C166.8 63.4001 175.1 71.7001 175.25 81.9751V150.725L62.75 150.75V82.0001C62.9 71.7001 71.225 63.4001 81.5 63.2501ZM156.5 700.75H81.5C71.2 700.6 62.9 692.3 62.75 682.025V613.25H175.25V682C175.1 692.3 166.775 700.6 156.5 700.75ZM331.45 700.75H256.5C246.2 700.6 237.9 692.3 237.75 682.025V613.25H350.2V682C350.05 692.3 341.725 700.6 331.45 700.75ZM661.325 680.2L588.925 699.575C587.5 699.95 585.875 700.175 584.2 700.175C580.725 700.175 577.475 699.25 574.675 697.625L574.775 697.675C570.5 695.2 567.325 691.2 566.025 686.425L566 686.3L548.225 619.925L656.85 590.825L674.65 657.25C675.025 658.65 675.225 660.25 675.225 661.9C675.225 670.575 669.425 677.875 661.5 680.15L661.375 680.175L661.325 680.2Z" fill="#8A9B6E"/>
</svg>
